<?xml version="1.0" encoding="UTF-8"?>
<svg id="Layer_1" data-name="Layer 1" xmlns="http://www.w3.org/2000/svg" version="1.1" viewBox="0 0 344.5 371.7">
  <defs>
    <style>
      .cls-1 {
        fill: none;
        stroke: #fff;
        stroke-miterlimit: 10;
        stroke-width: 4px;
      }
    </style>
  </defs>
  <g id="Layer_1-2" data-name="Layer 1">
    <polyline class="cls-1" points="206.3 130.4 240.3 130.4 274.3 130.4"/>
    <line class="cls-1" x1="204.5" y1="186.6" x2="276.1" y2="186.6"/>
    <line class="cls-1" x1="68.9" y1="185.1" x2="139.3" y2="185.1"/>
    <line class="cls-1" x1="234.3" y1="130.3" x2="70" y2="130.5"/>
  </g>
  <g id="Layer_2" data-name="Layer 2">
    <path class="cls-1" d="M205.9,128.9c0-18.5,0-36.9,0-55.4,0-1.6.5-2.3,1.9-3,15.6-7.7,31.1-15.5,46.6-23.3,18-9,35.9-18,53.9-26.9,10.8-5.4,21.6-10.8,32.4-16.2.5-.2,1-.4,1.6-.7v365.8h-67.4c-.1-.1-.2-.1-.2-.2s0-.1,0-.2c0,0,0-.1,0-.2,0,0,0-.1,0-.2,0-.1,0-.2,0-.4V97.7c0-.1,0-.2,0-.4,0,0,0-.1,0-.2,0,0,0-.1,0-.2,0,0,0-.1-.2-.4-.6.3-1.3.6-1.9.9-10.8,5.4-21.6,10.8-32.4,16.3-11.3,5.7-22.7,11.4-34,17.1"/>
    <path class="cls-1" d="M206,112.8h0"/>
    <path class="cls-1" d="M137.8,130.6c-.7-.2-1.4-.3-2-.7-21.4-10.8-42.8-21.7-64.2-32.5-.5-.3-1.1-.5-1.8-.8v272.2c-.2.2-.2.2-.3.3,0,0,0,.1-.1.1-.2,0-.5.1-.7.1H2.8c-.2,0-.5,0-.7,0-.4-1.4-.5-362-.2-365.8.6.3,1.2.5,1.8.8,12.2,6.2,24.5,12.3,36.7,18.5,23.5,11.8,46.9,23.6,70.4,35.3,8.3,4.2,16.5,8.3,24.8,12.4,1.4.7,1.9,1.4,1.9,3,0,18.3,0,36.7,0,55,0,.7.1,1.4.2,2.1"/>
    <path class="cls-1" d="M206,187.3v182.9h-68.6v-182.9"/>
  </g>
</svg>